<?xml version="1.0" standalone="no"?>
<!DOCTYPE svg PUBLIC "-//W3C//DTD SVG 20010904//EN"
 "http://www.w3.org/TR/2001/REC-SVG-20010904/DTD/svg10.dtd">
<svg version="1.0" xmlns="http://www.w3.org/2000/svg"
 width="500.000000pt" height="500.000000pt" viewBox="0 0 500.000000 500.000000"
 preserveAspectRatio="xMidYMid meet">
<metadata>
Created by potrace 1.11, written by Peter Selinger 2001-2013
</metadata>
<g transform="translate(0.000000,500.000000) scale(0.100000,-0.100000)"
fill="#000000" stroke="none">
<path d="M2269 3323 c-1 -5 -1 -11 0 -15 0 -5 -9 -8 -21 -9 -42 -1 -61 -8 -70
-24 -5 -8 -14 -12 -20 -9 -6 4 -14 0 -19 -7 -7 -11 -9 -11 -9 -1 0 7 -5 10
-10 7 -6 -4 -7 -11 -4 -17 4 -6 -1 -6 -14 1 -30 16 -39 14 -16 -4 16 -12 16
-14 2 -9 -12 4 -20 0 -25 -12 -6 -16 -7 -16 -14 2 -7 17 -8 17 -8 2 -1 -10 -5
-19 -11 -19 -11 -2 -25 -5 -37 -9 -5 -1 -11 -2 -15 -1 -4 0 -5 -6 -2 -14 4 -8
1 -16 -5 -16 -26 -3 -30 -4 -38 -13 -5 -5 -2 -6 7 -2 9 5 8 2 -2 -7 -10 -8
-14 -18 -10 -23 4 -4 -1 -2 -11 5 -9 8 -20 11 -24 7 -3 -3 -1 -6 5 -6 23 0 12
-18 -20 -34 -18 -8 -26 -16 -18 -16 8 -1 5 -5 -9 -11 -16 -6 -21 -14 -17 -25
5 -13 4 -14 -7 -6 -17 14 -28 6 -20 -16 5 -12 2 -14 -11 -9 -10 4 -15 3 -11
-3 3 -6 1 -10 -5 -10 -7 0 -10 -7 -6 -15 4 -11 -1 -15 -17 -15 -22 -1 -22 -1
-2 -17 16 -13 17 -15 3 -10 -14 5 -18 1 -18 -21 0 -19 -3 -23 -9 -14 -6 10
-11 6 -19 -16 -6 -17 -7 -34 -4 -38 4 -4 0 -5 -8 -2 -10 4 -17 0 -18 -11 -1
-9 -4 -25 -6 -36 -2 -11 -5 -24 -5 -28 -1 -5 -7 -5 -13 -1 -7 4 -10 4 -6 -1 4
-4 1 -23 -7 -42 -9 -21 -10 -31 -3 -27 6 4 8 3 5 -3 -3 -5 -8 -22 -11 -37 -3
-16 -8 -31 -11 -35 -3 -3 -4 7 -1 22 2 14 1 29 -2 31 -4 2 -9 -41 -10 -97 -2
-58 -7 -104 -14 -108 -7 -5 -7 -8 0 -10 6 -2 12 -35 13 -74 1 -44 7 -76 16
-87 11 -12 11 -18 2 -24 -7 -4 -10 -3 -5 4 3 6 3 13 -2 16 -4 2 -9 -4 -9 -15
-1 -13 5 -19 20 -20 21 0 21 -1 2 -9 -18 -8 -18 -9 -2 -9 10 -1 16 -5 12 -10
-3 -5 0 -13 6 -17 8 -5 7 -9 -2 -14 -10 -7 -10 -11 0 -24 7 -9 17 -14 21 -11
4 2 6 -6 5 -19 -3 -25 7 -48 21 -47 5 1 10 -8 10 -19 3 -37 4 -40 20 -40 8 0
13 -3 11 -7 -9 -15 12 -53 28 -53 12 0 15 -6 10 -20 -4 -11 -3 -20 2 -19 20 3
34 -2 28 -11 -3 -5 -1 -10 5 -10 6 0 8 -5 4 -12 -5 -8 0 -7 11 2 17 14 18 13
12 -2 -4 -12 0 -19 14 -23 10 -4 19 -13 19 -21 0 -8 5 -12 10 -9 6 3 10 1 10
-5 0 -6 5 -8 12 -4 8 5 9 2 5 -10 -5 -13 -3 -17 6 -13 8 3 20 1 28 -4 12 -8
12 -10 -1 -19 -8 -5 -10 -10 -4 -10 5 0 16 6 23 12 10 11 12 10 9 -2 -2 -8 3
-14 10 -13 6 2 12 -2 12 -7 0 -7 8 -6 23 1 19 11 20 10 9 -3 -10 -13 -9 -17 5
-23 10 -4 32 -7 48 -7 26 1 27 0 10 -7 -11 -5 -15 -10 -10 -11 6 -1 19 -4 30
-7 11 -2 30 -4 43 -4 14 1 22 -5 23 -17 0 -14 2 -14 9 3 7 17 9 17 9 3 1 -10
5 -18 11 -18 5 0 7 8 4 18 -3 9 2 6 10 -8 14 -23 20 -21 17 5 -1 6 4 3 11 -5
9 -11 33 -17 77 -18 47 -2 67 -7 77 -20 7 -9 16 -14 20 -9 4 4 2 7 -4 7 -7 0
-12 5 -12 11 0 5 4 7 10 4 18 -11 50 -14 50 -4 0 5 5 9 11 9 5 0 7 -4 4 -10
-3 -5 -1 -10 4 -10 6 0 11 7 11 16 0 8 5 12 10 9 6 -4 8 -10 6 -14 -3 -4 1 -8
9 -8 8 0 12 4 9 9 -5 7 17 10 89 11 15 0 27 5 27 11 0 6 5 4 10 -4 9 -13 13
-11 31 10 l20 25 -5 -25 -6 -25 12 23 c6 13 17 21 24 18 8 -3 16 -1 19 4 3 5
14 7 25 5 11 -2 23 1 26 7 4 6 2 8 -4 4 -6 -3 -13 -2 -17 4 -4 6 5 10 20 10
18 0 24 4 19 13 -6 10 -4 10 7 0 18 -18 34 -16 19 2 -11 13 -8 15 18 15 21 0
37 8 50 25 20 25 40 35 26 13 -4 -7 -3 -8 4 -4 6 4 9 13 6 20 -3 8 0 17 7 22
7 4 10 3 6 -3 -3 -5 0 -10 7 -10 8 0 12 6 9 13 -2 6 1 15 8 20 8 5 10 3 5 -7
-4 -8 -1 -6 8 5 8 10 20 15 26 11 6 -3 10 -3 9 2 -4 22 3 43 17 58 9 9 14 19
10 22 -3 3 -1 12 5 19 6 8 7 14 0 18 -6 4 -8 13 -5 20 6 16 -28 27 -46 16 -7
-4 -9 -13 -6 -19 4 -6 1 -11 -8 -11 -8 0 -18 -5 -22 -12 -5 -7 -3 -8 6 -3 9 5
11 4 6 -3 -4 -7 -16 -12 -27 -12 -10 0 -18 -3 -18 -7 3 -20 -2 -34 -10 -29 -5
3 -11 -1 -15 -9 -3 -8 -15 -15 -27 -15 -15 0 -19 -4 -15 -16 3 -8 2 -12 -4 -9
-6 3 -10 1 -10 -4 0 -6 -6 -10 -12 -8 -7 1 -12 -4 -10 -12 3 -12 1 -12 -14 0
-10 8 -15 9 -11 3 4 -7 -3 -14 -18 -18 -14 -4 -25 -13 -25 -22 0 -8 -5 -12
-10 -9 -6 4 -7 11 -4 17 4 7 2 8 -5 4 -6 -4 -9 -12 -6 -17 4 -5 -3 -9 -14 -9
-12 0 -21 -6 -21 -12 0 -10 -2 -10 -8 -1 -6 10 -14 9 -36 -3 -16 -8 -31 -12
-34 -9 -3 3 1 5 8 5 7 0 11 2 8 5 -10 10 -38 -7 -31 -19 4 -6 -1 -5 -10 3 -9
7 -17 9 -17 4 0 -12 -103 -11 -112 2 -5 7 -8 6 -8 -1 0 -12 -38 -13 -57 -1 -7
5 -17 6 -22 2 -5 -3 -13 0 -17 6 -5 8 -3 9 6 4 9 -5 11 -4 6 3 -5 9 -13 9 -27
2 -13 -8 -19 -7 -19 0 0 6 -8 10 -17 8 -12 -2 -18 3 -17 14 1 11 -4 14 -14 11
-9 -4 -13 -2 -9 4 4 6 -3 9 -18 7 -14 -1 -28 3 -32 8 -3 7 -1 8 5 4 7 -4 12
-2 12 3 0 6 -10 11 -22 11 -12 0 -18 3 -15 7 4 3 -6 14 -23 24 -21 13 -28 23
-23 35 5 14 3 16 -12 11 -16 -7 -16 -5 -4 10 9 11 10 14 1 9 -14 -8 -32 28
-26 56 1 10 0 17 -4 17 -19 -3 -33 2 -28 10 8 13 -4 42 -15 35 -5 -3 -6 2 -3
10 3 9 1 16 -5 16 -6 0 -11 5 -11 11 0 5 6 7 13 3 8 -5 7 -2 -2 9 -8 10 -11
20 -7 24 3 3 -3 13 -14 20 -11 8 -18 19 -14 24 8 14 26 0 18 -14 -4 -8 -2 -7
7 1 12 11 12 14 0 21 -8 6 -10 14 -5 22 6 12 5 12 -8 1 -13 -11 -15 -8 -16 20
-1 89 -3 109 -11 104 -5 -4 -8 2 -7 11 2 9 8 19 15 21 9 3 9 7 0 18 -6 8 -15
12 -18 9 -4 -2 -8 2 -8 10 0 11 4 12 14 4 10 -9 13 -8 13 5 0 9 -6 16 -12 16
-9 0 -8 4 2 10 12 8 12 10 -5 11 -19 0 -19 1 -1 8 19 7 19 8 1 14 -16 7 -16 9
-3 25 17 19 20 52 5 52 -5 0 -3 8 4 17 12 15 12 16 -1 8 -12 -6 -13 -5 -2 6 6
7 12 19 12 27 0 8 -5 10 -12 6 -10 -6 -10 -5 -1 8 7 8 14 36 16 61 1 26 8 52
14 58 6 6 9 18 6 27 -4 10 -2 13 5 8 7 -4 12 -2 12 3 0 6 -5 11 -12 11 -9 0
-9 3 0 12 7 7 12 22 12 34 0 12 7 25 16 28 9 4 14 13 10 21 -3 8 0 15 7 15 8
0 8 3 -2 9 -11 7 -10 11 6 20 11 5 23 8 25 5 3 -2 3 6 1 19 -3 14 1 28 8 32 8
6 10 4 5 -6 -4 -8 2 -3 14 11 11 14 25 36 31 49 7 19 12 21 24 11 12 -10 13
-8 10 9 -2 14 3 22 18 28 12 4 25 6 29 5 4 -1 4 6 1 15 -4 10 -2 14 5 9 6 -3
14 -1 18 5 4 8 9 7 15 -2 7 -11 9 -11 9 -1 0 7 4 11 9 8 5 -3 8 2 7 12 0 9 5
16 13 14 7 -1 19 3 27 9 11 9 14 8 14 -2 0 -9 3 -10 8 -4 9 13 42 13 62 0 13
-8 13 -7 1 8 -7 9 -17 14 -22 11 -5 -3 -9 -1 -9 4 0 5 45 9 100 9 56 0 95 -4
88 -9 -9 -5 -7 -8 7 -9 20 -2 36 -5 45 -9 3 -1 18 -3 34 -5 16 -1 35 -10 42
-20 7 -10 18 -14 25 -9 9 5 10 2 6 -9 -4 -12 -2 -14 10 -10 11 4 14 3 9 -6 -5
-8 -3 -11 5 -10 8 1 22 -1 32 -6 15 -6 16 -10 5 -16 -9 -6 -7 -9 10 -9 15 0
22 -6 22 -19 0 -12 7 -18 18 -17 12 1 17 -6 16 -26 0 -21 3 -25 13 -16 10 8
13 6 13 -8 0 -11 9 -25 20 -32 12 -7 20 -23 20 -40 0 -16 8 -34 20 -42 14 -10
16 -16 7 -22 -7 -4 -7 -8 -1 -8 5 0 9 -13 8 -30 -1 -16 2 -28 7 -25 4 3 6 13
3 23 -5 15 -4 15 6 -1 9 -14 9 -22 -2 -34 -9 -12 -9 -15 0 -9 7 4 12 2 12 -4
0 -6 5 -8 10 -5 6 3 10 1 10 -6 0 -8 3 -9 9 -4 12 12 17 157 7 174 -4 6 0 11
9 11 15 0 15 1 1 16 -20 20 -20 28 -1 20 13 -5 13 -2 -1 19 -15 23 -15 25 1
25 15 0 15 1 1 16 -20 20 -20 28 -1 20 13 -5 13 -2 -1 19 -15 23 -15 25 1 25
15 0 15 1 1 16 -20 20 -20 28 -1 20 13 -5 13 -2 -1 19 -15 23 -15 25 1 25 15
0 15 1 1 16 -20 19 -20 28 -1 21 8 -4 17 -1 21 5 4 6 3 8 -2 5 -6 -3 -16 -2
-24 4 -11 6 -12 9 -2 9 9 0 10 5 4 16 -5 9 -7 25 -5 35 7 26 -31 25 -50 -1 -8
-11 -17 -17 -20 -13 -4 3 -7 4 -7 1 0 -3 7 -11 16 -18 8 -8 14 -9 13 -4 -3 19
1 34 12 34 6 0 7 -5 2 -12 -4 -7 -8 -17 -8 -23 -1 -5 -7 -9 -14 -7 -8 2 -11
-3 -8 -12 3 -8 -1 -17 -9 -20 -10 -4 -13 -1 -9 7 4 6 -2 1 -13 -12 -20 -25
-57 -37 -66 -22 -3 4 6 7 19 5 14 -1 25 1 25 6 0 10 -49 10 -56 -1 -3 -5 -15
-2 -28 6 -12 8 -26 12 -29 8 -4 -3 -7 0 -7 8 0 11 -2 11 -10 -1 -8 -13 -10
-13 -10 2 0 9 6 19 13 21 6 3 -3 3 -20 0 -23 -4 -33 -2 -33 7 0 10 -3 10 -15
0 -12 -10 -15 -10 -15 4 0 9 -4 16 -10 16 -5 0 -7 -7 -4 -15 4 -8 1 -15 -6
-15 -6 0 -9 4 -6 9 7 11 -22 36 -31 27 -3 -3 -17 1 -31 10 -13 9 -21 11 -18 5
4 -6 0 -11 -8 -11 -9 0 -16 6 -16 13 0 18 -59 20 -79 4 -12 -9 -13 -9 -7 1 5
9 -13 12 -78 12 -62 0 -86 -3 -86 -12 0 -10 -2 -10 -9 0 -12 20 -18 19 -33 -1
-14 -18 -54 -14 -42 4 3 5 3 9 0 9 -3 0 -7 -3 -7 -7z m325 -12 c-8 -8 -34 -10
-38 -2 -3 4 6 7 19 7 14 0 22 -2 19 -5z m-591 -126 c-3 -9 -8 -14 -10 -11 -3
3 -2 9 2 15 9 16 15 13 8 -4z m42 -385 c3 -5 1 -10 -4 -10 -6 0 -11 5 -11 10
0 6 2 10 4 10 3 0 8 -4 11 -10z m-30 -229 c3 -5 2 -12 -3 -15 -5 -3 -9 1 -9 9
0 17 3 19 12 6z m100 -531 c3 -5 1 -10 -4 -10 -6 0 -11 5 -11 10 0 6 2 10 4
10 3 0 8 -4 11 -10z m927 -4 c6 4 8 2 4 -4 -3 -6 -2 -13 4 -17 6 -4 8 -11 4
-16 -3 -5 -10 -7 -15 -3 -5 3 -7 9 -4 14 3 5 1 11 -5 15 -5 3 -10 12 -9 18 0
9 2 8 6 -1 2 -6 10 -9 15 -6z m-592 -342 c0 -8 -19 -13 -24 -6 -3 5 1 9 9 9 8
0 15 -2 15 -3z"/>
<path d="M3980 3316 c0 -6 -12 -12 -27 -13 -16 -2 -44 -4 -63 -7 -19 -2 -38
-5 -42 -5 -4 -1 -5 -7 -2 -14 3 -9 -5 -13 -23 -14 -50 -1 -53 -2 -46 -20 6
-16 5 -16 -10 -4 -11 9 -17 10 -17 2 0 -6 -7 -11 -15 -11 -7 0 -18 -7 -23 -16
-5 -9 -11 -15 -13 -14 -13 5 -38 -14 -32 -24 4 -6 -1 -5 -10 3 -15 12 -17 12
-10 -4 5 -15 3 -17 -11 -12 -13 5 -19 1 -23 -14 -3 -11 -11 -18 -19 -15 -7 3
-16 -4 -19 -15 -4 -10 -13 -19 -20 -19 -8 0 -12 -6 -9 -14 3 -8 -3 -16 -16
-19 -14 -4 -19 -10 -14 -18 5 -9 2 -10 -9 -6 -13 5 -17 1 -17 -14 0 -15 -5
-19 -16 -15 -8 3 -12 2 -9 -3 3 -5 1 -12 -5 -16 -5 -3 -10 -15 -10 -26 0 -10
-5 -19 -11 -19 -5 0 -7 6 -3 13 4 6 3 8 -1 4 -5 -4 -10 -14 -12 -22 -2 -8 -4
-22 -6 -31 -2 -8 -8 -19 -14 -22 -6 -4 -13 -16 -15 -27 -2 -11 -10 -19 -18
-17 -11 3 -11 0 0 -13 11 -13 10 -15 -3 -9 -12 4 -15 0 -13 -20 2 -14 -1 -26
-7 -26 -6 0 -7 -3 -4 -7 4 -3 -2 -13 -13 -20 -15 -11 -18 -19 -11 -31 6 -10 6
-23 0 -34 -5 -10 -7 -18 -3 -18 3 0 0 -7 -7 -16 -16 -20 -18 -42 -6 -68 8 -15
6 -18 -6 -13 -13 5 -15 1 -9 -16 10 -30 8 -129 -2 -146 -5 -8 -5 -12 0 -9 5 3
16 -1 24 -10 13 -14 12 -15 -3 -9 -11 4 -17 1 -17 -9 0 -9 5 -12 13 -8 9 6 9
4 -1 -8 -10 -13 -10 -18 -1 -24 8 -5 10 -3 4 7 -5 8 -4 11 1 6 5 -5 9 -25 10
-45 1 -20 3 -38 4 -39 4 -4 7 -21 9 -40 1 -16 3 -16 11 -3 7 11 10 5 11 -25 1
-22 1 -44 0 -48 -1 -5 9 -5 21 -2 19 6 21 5 11 -6 -15 -15 -17 -33 -4 -25 5 3
11 -4 14 -15 3 -12 10 -18 16 -14 7 3 8 0 5 -9 -3 -9 -11 -13 -17 -9 -6 3 -7
1 -3 -5 4 -6 14 -8 23 -5 12 5 15 2 10 -10 -3 -9 -1 -19 5 -23 7 -5 8 -2 3 6
-5 9 -4 11 3 6 7 -4 12 -18 12 -31 0 -18 4 -22 20 -18 16 4 18 1 15 -17 -2
-13 -2 -20 2 -17 9 10 43 -12 43 -29 0 -8 5 -12 10 -9 6 3 10 -1 10 -9 0 -9 5
-16 10 -16 6 0 19 -9 30 -20 12 -12 26 -18 33 -13 7 4 5 -2 -3 -12 -14 -17
-14 -18 10 -5 24 13 24 12 10 -6 -8 -10 -10 -16 -6 -12 5 4 16 2 24 -5 13 -10
14 -9 8 1 -7 11 -4 11 12 1 12 -7 18 -17 15 -23 -4 -5 1 -7 9 -3 9 3 24 -3 34
-14 9 -10 19 -17 22 -14 3 3 14 -3 25 -12 11 -10 17 -13 14 -6 -8 13 18 12 30
-2 4 -4 2 -5 -4 -1 -7 4 -13 2 -13 -3 0 -11 8 -13 67 -13 20 0 30 -5 26 -11
-4 -7 0 -8 12 -3 14 5 15 4 7 -6 -8 -10 3 -13 54 -12 39 0 64 -4 64 -10 0 -7
3 -7 8 1 5 8 21 9 50 3 29 -5 42 -4 42 4 0 6 5 4 11 -4 8 -12 12 -12 16 -2 4
10 10 10 29 -3 16 -10 22 -11 19 -3 -4 10 21 13 107 13 87 0 116 3 132 16 12
9 32 15 46 14 14 -1 39 1 57 5 19 5 36 3 44 -4 6 -6 9 -6 7 -1 -7 12 17 37 26
28 3 -4 6 0 6 8 0 11 2 11 8 1 7 -10 14 -8 34 7 14 11 28 17 32 14 3 -3 6 0 7
8 0 8 4 6 9 -6 7 -16 9 -17 9 -3 1 11 7 15 21 11 14 -4 20 0 20 11 0 9 7 16
15 16 15 0 19 11 16 39 -2 7 2 10 8 6 7 -4 8 0 4 11 -5 13 -3 15 8 9 8 -5 3 4
-10 18 -25 27 -17 38 9 15 12 -11 12 -10 1 5 -7 9 -10 17 -5 17 4 0 -1 7 -12
16 -17 14 -17 15 -1 10 12 -4 17 -2 14 6 -2 7 -10 12 -16 10 -7 -1 -9 2 -6 8
4 6 14 9 24 6 9 -4 5 3 -9 14 l-25 21 25 -6 c21 -5 22 -4 8 5 -10 6 -18 20
-18 31 0 11 4 18 9 14 5 -3 13 -1 16 5 4 6 1 9 -6 8 -6 -2 -14 3 -17 11 -3 9
0 11 8 6 9 -6 10 -3 2 12 -13 24 -13 103 0 103 5 0 6 -6 2 -12 -4 -7 -3 -9 1
-5 16 14 14 36 -3 30 -15 -4 -15 -3 1 10 9 8 17 23 17 34 0 11 8 27 17 34 11
10 14 10 9 2 -4 -7 -2 -13 3 -13 6 0 11 4 11 10 0 5 3 9 8 9 4 -1 9 -1 12 1
24 9 50 8 44 -1 -4 -8 0 -8 15 0 27 15 54 63 34 60 -5 -1 -10 -1 -13 0 -20 7
-160 4 -160 -3 0 -5 -6 -4 -13 2 -7 6 -18 8 -24 4 -6 -4 -54 -5 -107 -2 -53 3
-96 1 -96 -4 0 -5 -6 -3 -13 3 -8 6 -17 8 -20 5 -9 -9 -81 -9 -94 -1 -7 4 -15
3 -18 -3 -5 -8 -11 -8 -20 0 -10 8 -15 8 -20 0 -5 -8 -10 -8 -20 0 -9 8 -15 8
-20 0 -4 -6 -12 -7 -24 -1 -9 5 -23 6 -30 2 -7 -5 -26 -7 -43 -5 l-31 4 22
-19 c12 -11 22 -22 22 -25 -3 -19 0 -26 10 -26 8 0 8 4 0 14 -7 9 -8 17 -2 20
5 3 11 2 13 -3 1 -5 10 -11 18 -13 8 -2 19 -7 23 -13 5 -6 7 -3 3 7 -3 10 -1
20 5 23 5 4 8 1 7 -7 -2 -7 3 -12 10 -11 6 2 12 -2 12 -8 0 -5 5 -7 10 -4 6 3
10 -1 10 -11 0 -13 3 -14 13 -5 14 11 15 10 18 -44 1 -14 6 -25 11 -25 5 0 6
5 3 10 -3 6 -1 10 4 10 15 0 14 -13 -1 -29 -10 -11 -10 -13 0 -7 8 5 12 0 12
-14 0 -14 -4 -19 -12 -14 -7 4 -10 4 -6 -1 4 -4 2 -15 -5 -24 -11 -14 -10 -14
6 -2 14 11 17 11 17 -1 0 -8 -6 -20 -12 -27 -10 -11 -10 -13 0 -7 7 5 12 1 12
-9 0 -12 -5 -15 -17 -11 -17 6 -17 5 0 -8 17 -13 25 -42 9 -32 -5 3 -9 -1 -9
-9 0 -8 4 -12 9 -9 4 3 8 -2 8 -11 0 -9 -4 -14 -9 -10 -5 3 -13 1 -16 -5 -4
-6 -1 -9 6 -8 7 2 15 -5 17 -16 3 -13 0 -16 -10 -11 -10 6 -11 5 0 -6 6 -7 12
-19 12 -27 0 -8 -5 -10 -12 -6 -7 4 -10 4 -6 -1 4 -4 2 -15 -5 -24 -11 -14
-10 -14 6 -2 14 11 17 11 17 -1 0 -8 -6 -20 -12 -27 -10 -11 -10 -13 0 -7 7 5
12 1 12 -9 0 -12 -5 -15 -17 -11 -15 5 -14 3 2 -9 16 -12 17 -19 8 -33 -6 -9
-18 -16 -27 -14 -9 2 -16 -2 -16 -9 0 -9 -3 -9 -14 0 -10 9 -16 9 -21 1 -4 -6
-20 -9 -35 -6 -22 3 -28 1 -25 -13 2 -14 -8 -16 -85 -16 -59 0 -86 4 -83 11 2
6 -3 11 -11 11 -8 0 -13 -3 -11 -7 6 -10 -33 -5 -42 5 -5 4 -3 5 4 1 6 -3 14
-3 17 2 3 5 -9 8 -27 7 -18 -1 -38 5 -47 15 -8 9 -11 10 -6 3 6 -10 4 -12 -8
-7 -9 3 -16 10 -16 15 0 5 -3 8 -7 8 -23 -4 -43 2 -38 11 6 9 -6 13 -21 8 -4
-2 -10 7 -15 20 -5 12 -15 22 -24 22 -8 0 -15 7 -15 15 0 9 -8 19 -17 23 -17
7 -25 22 -26 49 0 7 -4 10 -9 7 -5 -3 -5 -10 -2 -16 4 -6 2 -8 -4 -4 -6 3 -9
15 -7 26 2 12 -2 20 -10 20 -8 0 -12 8 -10 20 2 11 0 20 -4 20 -4 0 -8 14 -9
30 -3 52 -5 59 -14 54 -5 -3 -6 -10 -3 -15 4 -5 2 -9 -3 -9 -6 0 -9 18 -7 40
1 22 -1 40 -4 40 -4 0 -6 14 -5 30 2 30 -10 41 -19 18 -3 -7 -4 -3 -4 10 1 13
6 21 14 18 7 -3 10 1 6 10 -3 7 -8 14 -12 14 -4 0 -7 10 -8 23 0 12 -2 56 -3
98 -2 42 0 81 4 88 4 6 2 11 -4 11 -6 0 -9 4 -6 8 3 5 6 38 7 73 1 35 7 67 13
71 8 5 7 8 -1 8 -7 0 -13 4 -13 10 0 5 8 7 18 3 14 -5 13 -3 -3 10 -18 15 -18
16 -2 17 9 0 17 4 17 10 0 5 -8 14 -17 20 -17 11 -17 11 1 6 13 -5 17 -2 12 9
-3 8 -2 15 3 15 4 0 5 14 3 31 -3 24 -1 30 8 24 9 -6 9 -3 0 15 -10 18 -9 24
1 31 8 5 18 9 22 9 4 0 3 10 -4 21 -8 16 -8 20 1 14 7 -5 11 -1 10 11 -4 33 0
45 10 39 6 -3 11 -1 11 4 1 6 3 16 4 21 1 6 3 15 4 21 1 8 7 7 18 -2 15 -13
15 -12 3 11 -12 22 -12 24 2 12 13 -10 15 -9 10 13 -3 18 0 25 11 25 8 0 17
10 21 23 5 17 8 19 15 9 6 -10 10 -7 15 12 4 15 10 25 14 22 4 -3 14 -1 22 5
11 6 12 9 2 9 -7 0 -11 4 -7 10 3 5 12 7 20 3 8 -3 15 0 15 7 0 9 4 9 17 -1
15 -13 15 -12 4 10 -7 13 -9 21 -4 18 5 -3 21 0 36 8 23 12 28 12 35 -2 8 -13
10 -13 15 1 4 10 3 15 -3 11 -6 -3 -10 -1 -10 4 0 14 17 14 25 1 5 -8 11 -8
19 -1 7 6 48 11 92 12 111 1 116 1 108 -13 -4 -6 -3 -8 4 -4 5 3 12 3 15 -1 2
-5 2 -2 1 5 -2 6 4 12 12 12 10 0 14 -6 11 -14 -4 -10 -1 -13 9 -9 7 3 14 10
14 17 1 6 6 2 13 -9 7 -12 20 -21 30 -22 33 -1 37 -3 37 -17 0 -10 7 -13 21
-11 16 3 19 0 15 -12 -6 -14 -4 -14 11 -2 11 9 14 10 9 2 -4 -7 -3 -13 3 -13
6 0 8 -8 4 -17 -5 -15 -3 -14 10 2 17 20 17 20 23 -2 3 -13 13 -23 20 -23 8 0
14 -7 14 -15 0 -8 7 -15 15 -15 14 0 20 -13 15 -35 -1 -5 1 -7 5 -4 8 9 55
-34 55 -50 0 -6 5 -11 11 -11 5 0 8 -4 4 -9 -3 -5 -1 -12 5 -16 6 -4 7 -11 4
-17 -4 -7 -2 -8 4 -4 12 7 16 -4 12 -39 -2 -17 0 -17 15 -5 14 12 16 12 15 -1
-6 -36 1 -69 14 -69 7 0 17 -10 20 -22 11 -41 34 5 34 68 -1 30 2 57 5 61 4 3
2 12 -4 20 -9 10 -8 13 0 13 7 0 9 5 4 13 -10 16 -10 36 -1 63 3 12 2 26 -5
33 -6 6 -7 11 -2 11 6 0 10 14 10 30 0 17 -4 30 -8 30 -4 0 -3 9 3 20 8 14 8
20 0 20 -8 0 -8 6 0 20 6 11 7 20 2 20 -5 0 -6 18 -2 40 4 22 4 40 0 40 -5 0
-6 9 -3 20 4 14 0 20 -11 20 -9 0 -16 -5 -16 -11 0 -5 -4 -7 -10 -4 -6 4 -7
-1 -3 -11 5 -14 3 -16 -13 -11 -19 7 -19 7 0 -8 17 -13 17 -15 4 -15 -9 0 -20
-9 -23 -20 -4 -11 -15 -20 -27 -20 -13 0 -18 -5 -15 -14 4 -10 1 -13 -8 -9 -8
3 -13 8 -11 12 2 3 -12 7 -32 8 -21 2 -46 5 -57 7 -11 2 -22 5 -25 5 -3 1 2 6
10 11 9 6 10 10 3 10 -6 0 -15 -5 -19 -12 -5 -8 -10 -7 -18 3 -12 15 -29 21
-64 21 -19 0 -20 3 -10 16 10 12 10 14 1 8 -7 -4 -22 -2 -34 5 -16 8 -20 8
-14 -1 5 -9 2 -10 -11 -3 -11 5 -31 9 -45 8 -17 0 -25 4 -22 11 3 8 -39 12
-155 13 -135 1 -161 -1 -165 -14 -4 -8 -12 -15 -19 -14 -10 0 -10 2 0 6 17 7
15 20 -3 20 -8 0 -15 -5 -15 -11z m-630 -570 c0 -2 -7 -7 -16 -10 -8 -3 -12
-2 -9 4 6 10 25 14 25 6z m-33 -111 c0 -8 -4 -12 -9 -9 -5 3 -6 10 -3 15 9 13
12 11 12 -6z m1000 -290 c0 -8 -4 -12 -9 -9 -5 3 -6 10 -3 15 9 13 12 11 12
-6z m653 -9 c-7 -7 -13 -7 -20 0 -6 6 -3 10 10 10 13 0 16 -4 10 -10z"/>
<path d="M4356 3318 c3 -5 10 -6 15 -3 13 9 11 12 -6 12 -8 0 -12 -4 -9 -9z"/>
<path d="M587 3304 c-4 -4 -136 -8 -295 -8 l-287 -1 -1 -27 c-1 -15 3 -25 7
-22 5 3 9 -1 9 -8 0 -9 3 -9 8 -2 11 17 55 25 72 13 12 -8 10 -9 -7 -4 -12 3
-24 2 -26 -2 -3 -5 13 -10 36 -11 62 -3 66 -4 71 -19 3 -8 11 -11 17 -7 8 4 9
3 5 -4 -4 -7 -2 -12 5 -12 7 0 5 -6 -6 -13 -14 -11 -15 -16 -5 -22 7 -4 16 -2
20 5 5 8 9 3 12 -14 3 -15 1 -29 -5 -33 -5 -3 -7 -1 -3 5 3 6 2 13 -3 16 -12
8 -9 -13 6 -38 7 -13 8 -28 2 -43 -6 -16 -5 -23 4 -23 8 0 7 -4 -3 -10 -12 -8
-12 -10 -1 -10 11 0 11 -3 0 -17 -12 -15 -12 -16 1 -8 13 8 13 7 1 -8 -7 -9
-9 -17 -3 -17 5 0 8 -9 5 -20 -3 -11 -9 -17 -14 -14 -5 3 -9 0 -9 -5 0 -6 8
-11 18 -11 14 0 15 -2 2 -10 -8 -5 -10 -10 -4 -10 11 0 11 -46 0 -57 -3 -3 -1
-14 4 -24 8 -13 6 -20 -7 -28 -16 -9 -16 -10 -2 -11 12 0 15 -7 12 -27 -8 -59
-9 -83 -3 -83 8 0 4 -86 -5 -100 -3 -5 0 -10 7 -10 9 0 9 -3 -2 -10 -12 -8
-12 -10 -1 -10 11 0 11 -3 0 -17 -12 -15 -12 -16 1 -8 13 8 13 7 1 -8 -7 -9
-10 -17 -5 -17 11 0 10 -72 -1 -90 -6 -9 -4 -11 6 -5 11 7 12 6 2 -6 -7 -9 -8
-20 -3 -29 5 -8 6 -18 3 -23 -8 -13 -11 -57 -4 -57 8 0 6 -104 -2 -117 -3 -5
-2 -15 3 -23 4 -7 4 -24 -1 -37 -6 -16 -5 -23 4 -23 8 0 7 -4 -3 -10 -12 -8
-12 -10 -1 -10 11 0 11 -3 0 -17 -12 -15 -12 -16 1 -8 13 8 13 7 1 -8 -7 -9
-9 -17 -3 -17 5 0 8 -9 5 -20 -3 -11 -9 -17 -14 -14 -5 3 -9 0 -9 -5 0 -6 8
-11 18 -11 13 0 14 -2 3 -9 -11 -7 -11 -9 0 -14 10 -4 9 -6 -3 -6 -22 -1 -32
-17 -17 -27 8 -4 9 -3 5 4 -4 7 -1 12 7 12 10 0 13 -7 10 -20 -3 -11 -10 -17
-16 -13 -6 4 -7 1 -1 -8 14 -23 13 -38 -2 -32 -9 3 -14 0 -12 -8 2 -8 -4 -13
-14 -13 -9 1 -14 -4 -12 -11 3 -7 1 -16 -5 -20 -6 -3 -11 0 -11 7 -1 7 -8 2
-16 -12 -8 -14 -13 -18 -10 -8 4 14 -9 17 -34 8 -3 -1 -9 -2 -13 -1 -5 1 -6
-3 -2 -9 3 -5 -1 -10 -10 -10 -10 0 -13 5 -9 13 6 8 3 8 -9 -1 -9 -8 -21 -11
-27 -7 -17 11 -22 -22 -7 -50 12 -23 15 -25 20 -11 4 10 3 15 -3 11 -6 -3 -10
-2 -10 3 0 5 14 9 30 8 27 -1 29 -2 13 -13 -9 -7 -12 -13 -6 -13 7 0 19 7 27
16 9 8 16 11 16 5 0 -6 5 -11 11 -11 5 0 7 5 4 10 -3 6 -1 10 4 10 6 0 11 -6
11 -12 0 -9 4 -8 10 2 8 13 10 12 10 -2 0 -10 5 -18 11 -18 6 0 9 6 6 14 -6
15 17 16 30 1 4 -4 2 -5 -6 0 -9 5 -12 4 -7 -3 9 -15 12 -15 30 4 9 8 16 11
16 5 0 -6 5 -11 11 -11 5 0 8 4 5 8 -3 5 1 9 9 9 8 0 12 -4 9 -9 -3 -4 0 -8 5
-8 6 0 11 6 11 13 0 9 3 8 9 -2 7 -11 9 -11 14 0 4 10 6 9 6 -3 1 -10 6 -18
12 -18 6 0 9 6 6 14 -6 15 17 16 30 1 4 -4 2 -5 -6 0 -9 5 -12 4 -7 -3 9 -15
12 -15 30 4 9 8 16 11 16 5 0 -6 5 -11 11 -11 5 0 8 4 5 8 -3 5 1 9 9 9 8 0
12 -4 9 -9 -3 -4 0 -8 5 -8 6 0 11 6 11 13 0 9 3 8 9 -2 7 -11 9 -11 14 0 4
10 6 9 6 -3 1 -10 6 -18 12 -18 6 0 9 6 6 14 -6 15 17 16 30 1 4 -4 2 -5 -6 0
-9 5 -12 4 -7 -3 9 -15 12 -15 30 4 9 8 16 11 16 5 0 -6 5 -11 11 -11 5 0 8 4
5 8 -3 5 1 9 9 9 8 0 12 -4 9 -9 -3 -4 0 -8 5 -8 6 0 11 6 11 13 0 9 3 8 9 -2
7 -11 9 -11 14 0 3 9 6 7 6 -5 1 -20 1 -20 17 0 8 10 13 14 10 8 -3 -7 1 -14
9 -17 9 -4 12 -1 9 7 -3 7 2 13 10 13 8 0 13 -4 11 -8 -3 -4 2 -10 11 -13 21
-8 24 -8 24 5 0 5 -5 7 -10 4 -5 -3 -10 -2 -10 3 0 5 13 9 29 8 16 0 27 -4 24
-9 -2 -4 -9 -4 -15 -1 -7 4 -8 2 -4 -4 9 -15 12 -15 30 4 9 8 16 11 16 5 0 -6
5 -11 11 -11 5 0 8 4 5 8 -3 5 1 9 9 9 8 0 12 -4 9 -9 -3 -4 0 -8 5 -8 6 0 11
6 11 13 0 9 3 8 9 -2 7 -11 9 -11 14 0 3 9 6 7 6 -5 1 -20 1 -20 17 0 8 10 13
14 10 8 -3 -7 1 -14 9 -17 9 -4 12 -1 9 7 -3 7 2 13 10 13 8 0 13 -4 11 -8
-10 -15 25 -18 40 -3 8 9 15 11 15 5 0 -6 5 -11 11 -11 5 0 8 4 5 8 -3 5 1 9
9 9 8 0 13 -3 11 -6 -2 -3 3 -12 11 -20 13 -12 14 -11 9 5 -5 17 -1 20 28 20
19 0 32 -4 30 -8 -8 -13 11 -9 25 5 9 7 11 7 8 1 -4 -7 0 -14 8 -17 9 -4 12
-1 9 7 -3 7 2 13 10 13 8 0 13 -4 11 -8 -3 -4 2 -10 11 -13 21 -8 24 -8 24 5
0 5 -5 7 -10 4 -5 -3 -10 -2 -10 3 0 5 13 9 29 8 16 0 27 -4 24 -9 -2 -4 -9
-4 -15 -1 -7 4 -8 2 -4 -4 9 -15 12 -15 30 4 9 8 16 11 16 5 0 -6 5 -11 11
-11 5 0 8 4 5 8 -3 5 1 9 9 9 8 0 12 -4 9 -9 -3 -4 -1 -8 4 -8 6 0 12 7 16 15
3 8 11 15 19 15 7 0 13 9 13 19 0 11 -4 17 -9 14 -5 -3 -4 4 2 16 7 12 9 26 6
31 -3 6 -1 10 6 10 8 0 8 4 -1 15 -10 12 -9 15 6 15 18 1 18 1 1 11 -13 8 -15
15 -7 28 5 10 6 21 3 25 -3 3 -1 6 6 6 7 0 11 -7 8 -15 -4 -8 -3 -16 1 -19 4
-2 8 37 10 87 1 53 7 96 15 106 10 12 9 13 -1 7 -10 -6 -13 -2 -11 15 2 13 0
29 -4 36 -4 6 -3 14 3 18 6 4 7 11 4 17 -4 7 -2 8 5 4 6 -4 9 -12 6 -17 -3 -5
0 -6 8 -3 12 4 12 10 3 30 -8 18 -17 23 -36 21 -22 -3 -25 -9 -25 -40 0 -26
-5 -37 -15 -38 -10 0 -11 -2 -2 -6 6 -2 12 -9 12 -15 0 -6 -7 -8 -15 -5 -8 4
-17 2 -20 -3 -4 -6 -2 -10 3 -10 5 0 7 -11 4 -25 -2 -14 -11 -25 -18 -25 -8 0
-14 -9 -14 -19 0 -11 -5 -23 -12 -27 -7 -5 -8 -3 -3 6 5 9 4 11 -3 6 -7 -4
-12 -18 -12 -32 0 -23 -7 -27 -40 -25 -10 0 -11 -1 -2 -5 17 -8 15 -24 -4 -24
-9 0 -18 -9 -21 -20 -3 -11 -10 -20 -15 -20 -5 0 -6 6 -2 13 4 6 -7 -3 -24
-22 -24 -25 -35 -31 -45 -23 -8 7 -18 7 -27 2 -13 -9 -13 -10 0 -10 13 0 13
-1 0 -10 -9 -6 -17 -5 -22 3 -5 8 -8 5 -8 -8 0 -17 -2 -17 -10 -5 -7 12 -10
12 -10 1 0 -7 -6 -11 -14 -8 -7 3 -19 0 -26 -6 -10 -9 -11 -9 -6 0 5 9 2 11
-8 7 -9 -3 -12 -13 -9 -22 4 -13 2 -12 -10 3 -10 12 -16 15 -17 7 0 -7 -5 -10
-10 -7 -6 4 -8 11 -5 16 4 5 2 9 -2 9 -5 0 -14 -9 -21 -21 -11 -17 -16 -18
-28 -8 -10 8 -18 9 -22 3 -8 -11 -22 -12 -39 -1 -6 4 -14 4 -17 -1 -4 -7 -81
-8 -96 -2 -3 1 -9 2 -13 1 -5 -1 -6 3 -2 9 3 5 0 10 -8 10 -8 0 -20 7 -27 15
-7 8 -17 15 -23 15 -6 0 -2 -7 9 -16 18 -15 18 -15 0 -6 -11 5 -21 18 -23 28
-9 49 -9 95 -2 100 5 3 5 13 1 22 -5 9 -7 29 -6 45 2 15 -2 27 -7 27 -6 0 -7
-6 -3 -12 4 -7 3 -9 -1 -5 -14 12 -14 36 0 31 18 -7 14 38 -5 54 -13 12 -13
13 1 9 13 -4 15 6 15 63 0 38 -3 67 -7 64 -4 -2 -10 0 -14 6 -3 5 1 10 9 10 9
0 16 5 16 11 0 6 -6 9 -13 6 -8 -3 -14 1 -14 8 0 7 6 11 12 8 18 -6 13 39 -5
55 -13 12 -13 13 1 9 14 -5 16 1 14 30 -1 19 4 41 12 49 8 8 10 14 4 14 -6 0
-18 -12 -26 -27 -9 -16 -13 -19 -9 -8 3 11 7 26 7 33 0 6 7 12 16 13 9 0 32 2
51 4 19 1 29 1 23 -2 -17 -6 -17 -21 0 -20 6 0 31 -1 55 -1 40 -2 43 -4 36
-24 -6 -19 -4 -21 7 -12 11 9 20 5 41 -17 16 -17 23 -31 17 -35 -6 -4 -1 -16
12 -31 13 -13 23 -36 24 -51 0 -15 6 -28 13 -28 24 -3 24 -4 11 -21 -12 -14
-12 -16 0 -8 11 6 13 3 9 -13 -4 -13 -1 -22 5 -22 7 0 5 -5 -3 -10 -8 -5 -10
-10 -4 -10 6 0 16 -12 23 -27 11 -24 10 -25 -4 -13 -8 7 -18 10 -22 6 -3 -3
-1 -6 6 -6 7 0 10 -4 7 -8 -3 -5 0 -9 7 -9 7 0 21 -4 32 -8 16 -5 17 -5 5 4
-13 9 -13 11 0 11 13 0 13 1 0 10 -10 6 -11 10 -2 10 6 0 12 11 12 25 0 14 -6
25 -12 25 -10 0 -10 2 -1 8 15 10 15 204 -1 214 -8 6 -8 8 1 8 16 0 16 359 -1
379 -8 11 -8 13 1 7 17 -9 15 72 -1 93 -8 11 -8 13 1 8 7 -5 11 -1 10 11 -1
12 -8 18 -21 16 -12 -1 -25 -3 -31 -3 -5 -1 -4 -5 4 -10 8 -5 15 -22 17 -38 2
-23 1 -25 -7 -10 -6 9 -8 21 -5 25 3 5 0 9 -7 9 -8 0 -11 -16 -10 -45 0 -24
-4 -58 -9 -74 -8 -23 -8 -32 3 -40 10 -7 8 -7 -8 -3 -22 6 -26 0 -22 -31 0 -3
-8 -12 -18 -20 -17 -13 -17 -14 1 -7 17 6 17 4 -3 -16 -12 -12 -20 -25 -17
-30 3 -4 -1 -8 -9 -8 -12 0 -12 3 -2 16 11 14 10 14 -6 2 -10 -8 -16 -20 -13
-28 3 -7 -1 -13 -9 -13 -8 0 -18 -7 -23 -16 -5 -9 -12 -15 -15 -15 -35 5 -57
0 -51 -11 6 -10 4 -10 -7 -2 -12 9 -33 10 -78 6 -11 -2 -11 -5 0 -19 13 -15
12 -15 -9 -2 -12 8 -18 15 -12 17 5 2 10 8 10 13 0 6 -4 7 -10 4 -5 -3 -10 4
-11 17 -1 13 -2 42 -4 66 -1 32 2 42 14 43 12 0 11 3 -4 9 l-20 9 20 0 c16 1
17 3 6 10 -9 6 -15 30 -16 70 -1 49 1 61 14 62 12 0 11 3 -4 9 l-20 9 20 0
c16 1 17 3 6 10 -9 6 -15 30 -16 70 -1 49 1 61 14 62 12 0 11 3 -4 9 l-20 9
20 0 c15 1 17 3 6 10 -17 11 -24 74 -7 64 6 -4 4 2 -4 12 -13 17 -13 18 1 13
9 -4 16 -1 16 8 0 7 -4 11 -8 9 -12 -8 -18 21 -7 36 8 11 9 10 4 -3 -3 -10 -1
-18 4 -18 6 0 10 4 10 9 0 12 49 20 56 9 3 -5 12 -4 20 3 11 9 14 9 14 0 0 -8
5 -9 19 -1 14 7 22 7 26 0 5 -8 11 -7 21 1 10 8 14 8 14 0 0 -7 8 -8 25 -1 14
5 25 6 25 2 0 -4 26 -7 57 -6 32 1 70 -5 85 -12 15 -8 42 -16 60 -18 20 -2 33
-9 33 -17 0 -8 5 -14 10 -14 27 -2 55 -18 55 -32 0 -9 6 -13 15 -9 11 4 15 0
13 -12 -2 -12 3 -17 19 -16 13 1 20 -3 17 -7 -3 -5 -10 -7 -15 -4 -5 4 -9 2
-9 -4 0 -5 5 -11 10 -13 6 -2 12 -13 13 -26 1 -13 7 -21 16 -19 10 1 14 -10
15 -41 1 -24 7 -47 15 -51 7 -5 14 -22 14 -39 1 -17 6 -28 11 -24 5 3 7 -2 3
-12 -11 -27 10 -9 27 24 8 17 10 32 5 36 -5 3 -9 12 -9 20 0 8 4 13 9 9 5 -3
13 -1 16 5 4 6 1 9 -5 8 -16 -4 -23 41 -10 57 8 9 8 15 0 20 -18 11 -12 38 8
31 15 -5 15 -4 2 6 -22 19 -24 47 -3 71 10 11 12 17 5 13 -17 -10 -28 24 -11
35 8 5 9 9 4 9 -6 0 -11 18 -12 41 -2 36 0 39 15 27 15 -11 15 -11 5 3 -7 9
-9 20 -5 24 4 5 1 5 -5 1 -9 -5 -13 1 -13 21 0 15 -4 24 -8 18 -9 -13 -42 -16
-42 -3 0 5 -5 6 -12 2 -16 -10 -468 -11 -468 -1 0 5 -5 5 -11 2 -16 -10 -148
-12 -152 -2 -1 4 -6 5 -10 1z m-547 -40 c0 -8 -19 -13 -24 -6 -3 5 1 9 9 9 8
0 15 -2 15 -3z m965 -82 c-3 -3 -11 0 -18 7 -9 10 -8 11 6 5 10 -3 15 -9 12
-12z m-316 -627 c3 -3 -7 -4 -23 -1 -16 3 -31 8 -35 11 -3 3 7 4 23 1 16 -3
31 -8 35 -11z m181 -216 c0 -6 -4 -7 -10 -4 -5 3 -10 11 -10 16 0 6 5 7 10 4
6 -3 10 -11 10 -16z m30 -58 c0 -6 -4 -12 -8 -15 -5 -3 -9 1 -9 9 0 8 4 15 9
15 4 0 8 -4 8 -9z m-308 -97 c-9 -16 -10 -14 -9 8 1 15 6 23 11 18 4 -4 4 -16
-2 -26z m5 -176 c-2 -7 -1 -20 3 -28 5 -9 3 -23 -4 -32 -13 -18 -13 -18 -7 65
1 4 4 7 7 7 3 0 4 -6 1 -12z m777 -54 c3 -8 2 -12 -4 -9 -6 3 -10 10 -10 16 0
14 7 11 14 -7z m-1264 -184 c0 -5 -5 -10 -11 -10 -5 0 -7 5 -4 10 3 6 8 10 11
10 2 0 4 -4 4 -10z m860 -44 c0 -3 -4 -8 -10 -11 -5 -3 -10 -1 -10 4 0 6 5 11
10 11 6 0 10 -2 10 -4z"/>
<path d="M2577 3209 c7 -7 15 -10 18 -7 3 3 -2 9 -12 12 -14 6 -15 5 -6 -5z"/>
<path d="M595 3009 c-4 -6 -5 -12 -2 -15 2 -3 7 2 10 11 7 17 1 20 -8 4z"/>
<path d="M4645 2991 c-3 -5 -2 -12 3 -15 5 -3 9 1 9 9 0 17 -3 19 -12 6z"/>
<path d="M3756 2862 c-3 -5 1 -9 9 -9 8 0 12 4 9 9 -3 4 -7 8 -9 8 -2 0 -6 -4
-9 -8z"/>
<path d="M595 2849 c-4 -6 -5 -12 -2 -15 2 -3 7 2 10 11 7 17 1 20 -8 4z"/>
<path d="M595 2689 c-4 -6 -5 -12 -2 -15 2 -3 7 2 10 11 7 17 1 20 -8 4z"/>
<path d="M4820 2159 c0 -5 5 -7 10 -4 6 3 10 8 10 11 0 2 -4 4 -10 4 -5 0 -10
-5 -10 -11z"/>
<path d="M1397 2151 c6 -7 9 -20 6 -27 -3 -8 -3 -14 0 -14 14 0 14 30 -1 41
-14 11 -15 11 -5 0z"/>
<path d="M2175 1940 c3 -5 8 -10 11 -10 2 0 4 5 4 10 0 6 -5 10 -11 10 -5 0
-7 -4 -4 -10z"/>
<path d="M1130 1879 c0 -5 5 -7 10 -4 6 3 10 8 10 11 0 2 -4 4 -10 4 -5 0 -10
-5 -10 -11z"/>
<path d="M4831 1834 c0 -11 3 -14 6 -6 3 7 2 16 -1 19 -3 4 -6 -2 -5 -13z"/>
<path d="M4423 1825 c0 -8 4 -12 9 -9 5 3 6 10 3 15 -9 13 -12 11 -12 -6z"/>
<path d="M701 1823 c-1 -17 16 -25 25 -12 4 7 3 9 -4 5 -5 -3 -13 0 -15 6 -4
9 -6 10 -6 1z"/>
<path d="M4236 1781 c9 -9 34 -9 34 -1 0 5 -9 8 -20 7 -10 -1 -17 -3 -14 -6z"/>
<path d="M4696 1772 c-3 -5 1 -9 9 -9 8 0 12 4 9 9 -3 4 -7 8 -9 8 -2 0 -6 -4
-9 -8z"/>
<path d="M1066 1708 c3 -5 10 -6 15 -3 13 9 11 12 -6 12 -8 0 -12 -4 -9 -9z"/>
<path d="M4465 1710 c-3 -5 1 -10 9 -10 9 0 16 5 16 10 0 6 -4 10 -9 10 -6 0
-13 -4 -16 -10z"/>
</g>
</svg>
